<svg width="163" height="141" viewBox="0 0 163 141" fill="none" xmlns="http://www.w3.org/2000/svg">
<path d="M15.2812 0C6.84473 0 0 6.76674 0 15.1071V125.893C0 134.233 6.84473 141 15.2812 141H147.719C156.155 141 163 134.233 163 125.893V15.1071C163 6.76674 156.155 0 147.719 0H15.2812ZM15.2812 10.0714H49.0273C50.0779 10.0714 50.9375 10.9212 50.9375 11.9598V18.2545C50.9375 19.2931 50.0779 20.1429 49.0273 20.1429H12.0977C11.0471 20.1429 10.1875 19.2931 10.1875 18.2545V15.1071C10.1875 12.3375 12.4797 10.0714 15.2812 10.0714ZM150.902 40.2857H12.0977C11.0471 40.2857 10.1875 39.4359 10.1875 38.3973V27.067C10.1875 26.0283 11.0471 25.1786 12.0977 25.1786H56.0312L65.6457 10.9212C65.9959 10.3862 66.6008 10.0714 67.2375 10.0714H147.719C150.52 10.0714 152.812 12.3375 152.812 15.1071V38.3973C152.812 39.4359 151.953 40.2857 150.902 40.2857ZM81.5 123.375C60.4246 123.375 43.2969 106.442 43.2969 85.6071C43.2969 64.7719 60.4246 47.8393 81.5 47.8393C102.575 47.8393 119.703 64.7719 119.703 85.6071C119.703 106.442 102.575 123.375 81.5 123.375ZM81.5 57.9107C66.0596 57.9107 53.4844 70.3426 53.4844 85.6071C53.4844 100.872 66.0596 113.304 81.5 113.304C96.9404 113.304 109.516 100.872 109.516 85.6071C109.516 70.3426 96.9404 57.9107 81.5 57.9107ZM66.2188 90.6429C63.4172 90.6429 61.125 88.3768 61.125 85.6071C61.125 74.4971 70.2619 65.4643 81.5 65.4643C84.3016 65.4643 86.5938 67.7304 86.5938 70.5C86.5938 73.2696 84.3016 75.5357 81.5 75.5357C75.8969 75.5357 71.3125 80.0679 71.3125 85.6071C71.3125 88.3768 69.0203 90.6429 66.2188 90.6429Z" fill="#D9D9D9"/>
</svg>
